#!OML:ASF F:\VICON\USERDATA\INSTALL\rory3\rory3.ASF
:FULLY-SPECIFIED
:DEGREES
37
root -0.044893138732083226 18.05668294280654 8.368272657657133 -2.540325325473617 -3.326939584651954 -6.768722731064003
lfemur -29.492204619617503 1.0483466353144926 -11.540980246112435
ltibia 45.96340840311885
lfoot -5.917581181500642 -0.11675734060925391
ltoes -4.053103321624962
rfemur 0.5781586354059627 6.478940333477622 33.87113641762481
rtibia 28.740706427694864
rfoot -13.370778186108945 -6.216750073286854
rtoes -2.0272673304062874
lowerback 10.847330612105173 0.9419839421010008 5.5262930089165865
upperback -0.11412551250236112 2.1868757030298562 1.866056228168298
thorax -5.249687510426795 1.317341007915367 -1.8016245648303195
lowerneck -16.468709353398904 -2.8352475574500455 -1.8099213870592008
upperneck 20.574079823700927 -4.154278123343737 1.0697790735595274
head 9.453535720285133 -1.9759689381771772 0.11423043047087711
lclavicle -4.519705718617531e-16 -7.862597960905745e-16
lhumerus -35.35234471446447 8.121680006582435 78.9803927257017
lradius 23.959600321875367
lwrist 6.487841156089047
lhand -27.91547608557011 20.22890997846433
lfingers 7.12502
lthumb -1.5480152234812203 49.60432222674834
rclavicle -4.528854806557855e-16 -7.761840171143666e-16
rhumerus -22.96516654068266 -8.866617457981246 -82.62667779385343
rradius 29.97450491319718
rwrist -1.5038754899130327
rhand -17.987518425865645 22.71118177151459
rfingers 7.12502
rthumb 8.354625281428929 -7.114405843017465
38
root -0.01154548815969103 18.029353804543884 8.928660981826047 -1.761862676148397 -3.583708034413097 -7.049876161870305
lfemur -29.49955917464667 -0.9564463674531134 -10.255288668670012
ltibia 34.13057116768438
lfoot -6.438076745207171 0.5599341458166913
ltoes -3.8633789584480542
rfemur 3.423468419245131 6.638946974635434 34.490713868994206
rtibia 26.21450975973943
rfoot -12.432006765155116 -6.399471345808029
rtoes -3.419698069184043
lowerback 10.61405831312112 1.2277747367054996 6.1610033746391135
upperback -0.17599389679429994 2.515407959809199 1.8174461978175487
thorax -5.102257827967622 1.5375008375841333 -2.2104238385925665
lowerneck -16.480228278894348 -2.856125151999675 -1.8031123662845416
upperneck 20.557412003136147 -4.182267962956726 1.1898390005831816
head 9.422816474532144 -1.9418540465184686 0.13458978511787548
lclavicle -4.519093147685554e-16 -7.862258846698847e-16
lhumerus -35.76034366369204 8.52038515039756 78.90432398027694
lradius 23.092136639115203
lwrist 6.0054022111090815
lhand -28.007261677732117 20.458921226164403
lfingers 7.12502
lthumb -1.5039482072412618 50.26223156285973
rclavicle -4.529027756769525e-16 -7.761981161374827e-16
rhumerus -21.804356171232357 -7.72135740276239 -82.79514432463456
rradius 31.43730260880887
rwrist -2.20167509823814
rhand -17.93743887329827 22.977968321469795
rfingers 7.12502
rthumb 8.356336083438869 -7.0039933716036025
39
root 0.029292785268713317 17.983806513509318 9.413884398485916 -1.039047762451111 -3.8711979718755543 -7.318940224159419
lfemur -28.325119207900066 -4.4062556026399085 -8.5978082808353
ltibia 21.44961243723131
lfoot -6.008488512373008 0.9541237371114857
ltoes -3.580793803297411
rfemur 6.000342510025234 6.614274554975712 34.64688963368311
rtibia 23.880008144470544
rfoot -11.33819900943035 -6.289268657175647
rtoes -3.7158181872376197
lowerback 10.309370913413108 1.493179918047331 6.69213811314876
upperback -0.21832586439984286 2.768630735683714 1.775973859897403
thorax -4.951826547638156 1.7025719740166116 -2.500413553244851
lowerneck -16.444810288723964 -2.846319791920695 -1.7693920937957741
upperneck 20.504058929965037 -4.236547583667371 1.2690978235492847
head 9.368840675424897 -1.8921653404986556 0.16258266207774724
lclavicle -4.518831739273026e-16 -7.863208566516931e-16
lhumerus -36.063606046128264 8.956210632380756 78.86351129289346
lradius 22.111056568522127
lwrist 5.261028835718952
lhand -27.769630080650362 21.302952978085525
lfingers 7.12502
lthumb -1.350157063584761 50.81332927403801
rclavicle -4.529159965492292e-16 -7.762081417774955e-16
rhumerus -20.944471777586973 -7.322641328202003 -82.77938450486639
rradius 32.456258992128866
rwrist -2.491194428130558
rhand -17.943693441493764 23.180533293926644
rfingers 7.12502
rthumb 8.35817776637155 -6.829128170812266
40
root 0.08188972906727149 17.92053691691495 9.953573794705964 -0.5536809750747493 -4.161251693022739 -7.349472544012098
lfemur -26.669919331067156 -7.078512649473009 -7.825427062956548
ltibia 11.212260310930333
lfoot -4.65874422918921 1.0104893918325555
ltoes -3.1022299520854806
rfemur 8.242846593128771 6.668406113406689 34.4573526917114
rtibia 23.23686803613017
rfoot -10.338423554302569 -5.850965508868852
rtoes -1.9246667058356994
lowerback 9.970610087955905 1.7119593962799224 6.9927679474853095
upperback -0.24626088298423537 2.9278919393648106 1.7201360163645132
thorax -4.826314574734167 1.8161646746640687 -2.6641178765840854
lowerneck -16.43214313761428 -2.853022307171959 -1.7758715743247901
upperneck 20.433823876073554 -4.299370943378685 1.4220342571305051
head 9.328251352941727 -1.8729513683195116 0.20089956310526685
lclavicle -4.519064429520524e-16 -7.863120919398066e-16
lhumerus -36.53115037233472 9.187811673913986 78.75187069558419
lradius 21.10521627448065
lwrist 4.285336751867745
lhand -28.111742083910286 20.58497358284581
lfingers 7.12502
lthumb -1.6481493957694124 50.27845535901004
rclavicle -4.529189471292833e-16 -7.762105983561376e-16
rhumerus -20.42833887609251 -7.620084725055676 -82.65129223880905
rradius 32.99981209047286
rwrist -2.4684942640213485
rhand -17.942504575429023 23.233467050423748
rfingers 7.12502
rthumb 8.387908619839903 -6.715214241513007
41
root 0.14725350319801284 17.852463735390238 10.540453466570067 -0.4780246870266356 -4.226508540194898 -7.0629070655468835
lfemur -26.102559372563086 -5.901567339109716 -9.32941930195316
ltibia 8.150248801444246
lfoot -3.809174402210785 -0.343247623261834
ltoes -2.8218854998511396
rfemur 9.39858539368559 6.789354575343879 33.87881915408431
rtibia 24.571180941623865
rfoot -9.434173757999359 -5.4127717591656195
rtoes 0.8880195600384675
lowerback 9.633327384829524 1.8696304597813171 7.034654291097778
upperback -0.26360000435105474 3.0242003252393586 1.641490146260304
thorax -4.717441701340415 1.8880411544441826 -2.7099504105112846
lowerneck -16.40515999869633 -2.8738409152104567 -1.7779798077983449
upperneck 20.4076404199971 -4.373013710356424 1.5750906550866957
head 9.298486648960893 -1.8748845493728103 0.23960643510580365
lclavicle -4.519092589128293e-16 -7.862497061201071e-16
lhumerus -36.978071617957845 9.33435527018149 78.6219193154867
lradius 20.17874353009685
lwrist 3.127679443163641
lhand -27.944191610843937 20.8780623974308
lfingers 7.12502
lthumb -1.515921414709622 50.44546525388056
rclavicle -4.52958294099315e-16 -7.76240952009562e-16
rhumerus -20.352650640226095 -8.494637545785148 -82.40908787626462
rradius 33.16715632279868
rwrist -2.2338956692824494
rhand -17.89415838888246 23.186535646106957
rfingers 7.12502
rthumb 8.419206141919235 -6.783492078462906
42
root 0.23126159800825707 17.806388860590104 11.447526806084166 -0.845976171131547 -3.8861597147639744 -6.3799262761452455
lfemur -26.566180697123244 -3.825426079912439 -11.728138706298585
ltibia 13.089077217116756
lfoot -2.7437552766181934 -2.128496045013917
ltoes -2.737519302914739
rfemur 10.25826292015688 6.613111325172683 33.31210477395947
rtibia 27.446062191569638
rfoot -7.572666951977384 -4.670205564590044
rtoes 4.646084965471821
lowerback 9.34947975738967 1.969931906455357 6.806466706783566
upperback -0.27528394166682885 3.057338069122885 1.5325043637031621
thorax -4.657109145735544 1.9193387786648946 -2.655688573225788
lowerneck -16.33011892477968 -2.919828597206237 -1.7967449488990097
upperneck 20.46363726503141 -4.4512675804117885 1.7323633814475492
head 9.267109687061936 -1.897611252055387 0.27931607393352054
lclavicle -4.519113624240877e-16 -7.862504624814813e-16
lhumerus -37.29837350834706 9.387871070102207 78.47615256430801
lradius 19.44005649191511
lwrist 1.900795365922452
lhand -27.849095589244417 21.030130294622374
lfingers 7.12502
lthumb -1.4424850908192748 50.46363698825074
rclavicle -4.52956838880986e-16 -7.762397840835751e-16
rhumerus -20.81992247990808 -9.868048782748092 -82.05619856513087
rradius 33.05244478866476
rwrist -1.713665040418479
rhand -17.83573620690451 23.0333048790041
rfingers 7.12502
rthumb 8.442563635707941 -6.900054458570622
43
root 0.3274972732403122 17.796656854931744 12.323827707889375 -1.558460948458776 -3.258614700214088 -5.311215510315206
lfemur -26.036215292503876 -3.2739697194951427 -14.066336115176924
ltibia 19.202802708119734
lfoot -2.0820322107081664 -4.0282630033833335
ltoes -2.445763241556349
rfemur 10.24393312093152 5.695920672357385 31.75494301472586
rtibia 32.222348711483676
rfoot -4.566648369821906 -3.753430365205566
rtoes 7.2894481968407625
lowerback 9.145214720236705 2.0336569893176075 6.343907283945977
upperback -0.2820668494136906 3.0128506018762957 1.386321765804561
thorax -4.644075019314361 1.925196957174685 -2.530458351941795
lowerneck -16.22398104031873 -2.9856262619294 -1.837622085605767
upperneck 20.600632242781327 -4.517426198152057 1.8670673982003518
head 9.242152469361 -1.9295006046075431 0.3297247271371253
lclavicle -4.519116482303249e-16 -7.862513825183563e-16
lhumerus -37.37406762844286 9.450333937072081 78.31080983080597
lradius 18.948723971891425
lwrist 0.6643407505838121
lhand -27.84953200909952 20.98166253620588
lfingers 7.12502
lthumb -1.4337706485254136 50.37436901928325
rclavicle -4.529579691205393e-16 -7.762406633683853e-16
rhumerus -21.819438529107252 -11.639512495037943 -81.58840261670188
rradius 32.7652072870914
rwrist -0.9308510764912494
rhand -17.78834930550641 22.8794111590422
rfingers 7.12502
rthumb 8.43486121500982 -7.056556575947341
